<?xml version="1.0" encoding="iso-8859-1"?>
<!-- Uploaded to: SVG Repo, www.svgrepo.com, Generator: SVG Repo Mixer Tools -->
<svg height="100px" width="100px" version="1.1" id="Layer_1" xmlns="http://www.w3.org/2000/svg" xmlns:xlink="http://www.w3.org/1999/xlink"
	 viewBox="0 0 512.001 512.001" xml:space="preserve">
<path style="fill:#2e86c1;" d="M417.051,330.876C286.72,327.401,181.384,220.924,179.278,90.564
	c-0.293-18.132,1.398-35.817,4.859-52.86c2.519-12.399-9.402-22.89-21.329-18.666C66.992,52.971-1.372,144.953,0.021,252.719
	c1.718,132.904,110.828,240.841,243.744,241.193c98.341,0.261,183.193-57.562,222.215-141.091
	c5.366-11.486-3.681-24.575-16.287-23.235C439.003,330.722,428.109,331.171,417.051,330.876z"/>
<path style="fill:#5499c7;" d="M449.692,329.587c-10.688,1.136-21.583,1.582-32.639,1.287
	c-73.874-1.97-139.708-37.04-183.274-90.788v253.578c3.314,0.143,6.642,0.24,9.987,0.248
	c98.341,0.261,183.193-57.562,222.215-141.091C471.345,341.337,462.298,328.247,449.692,329.587z"/>
</svg>