<?xml version="1.0" encoding="iso-8859-1"?>
<!-- Uploaded to: SVG Repo, www.svgrepo.com, Generator: SVG Repo Mixer Tools -->
<svg height="100px" width="100px" version="1.1" id="Layer_1" xmlns="http://www.w3.org/2000/svg" xmlns:xlink="http://www.w3.org/1999/xlink"
	 viewBox="0 0 512 512" xml:space="preserve">
<path style="fill:#d7bde2;" d="M195.048,338.355V60.952C195.048,27.29,222.337,0,256,0s60.952,27.29,60.952,60.952v277.419
	c22.287,17.874,36.571,45.314,36.571,76.105C353.524,468.339,309.862,512,256,512c-53.86,0-97.524-43.661-97.524-97.524
	C158.476,383.681,172.757,356.229,195.048,338.355z"/>
<path style="fill:#e8daef;" d="M316.952,60.952v277.419c22.287,17.874,36.571,45.314,36.571,76.105
	C353.524,468.339,309.862,512,256,512V0C289.663,0,316.952,27.29,316.952,60.952z"/>
<path style="fill:#FF0000;" d="M237.714,382.809V195.048h36.571v187.761c10.929,6.326,18.286,18.133,18.286,31.667
	c0,20.197-16.374,36.571-36.571,36.571s-36.571-16.374-36.571-36.571C219.429,400.942,226.786,389.135,237.714,382.809z"/>
</svg>