<?xml version="1.0" encoding="iso-8859-1"?>
<!-- Uploaded to: SVG Repo, www.svgrepo.com, Generator: SVG Repo Mixer Tools -->
<svg version="1.1" id="Layer_1" xmlns="http://www.w3.org/2000/svg" xmlns:xlink="http://www.w3.org/1999/xlink" 
	 viewBox="0 0 511.998 511.998" xml:space="preserve">
<g>
	<rect x="297.442" y="37.39" style="fill:#FF9900;" width="35.523" height="84.342"/>
	
		<rect x="163.698" y="107.083" transform="matrix(-0.7071 -0.7071 0.7071 -0.7071 263.1618 358.693)" style="fill:#FF9900;" width="84.341" height="35.522"/>
	
		<rect x="382.374" y="325.765" transform="matrix(-0.7071 -0.7071 0.7071 -0.7071 481.8346 886.6338)" style="fill:#FF9900;" width="84.341" height="35.522"/>
	<rect x="427.655" y="216.425" style="fill:#FF9900;" width="84.342" height="35.522"/>
	
		<rect x="406.776" y="82.678" transform="matrix(-0.7071 -0.7071 0.7071 -0.7071 636.4481 513.3237)" style="fill:#FF9900;" width="35.522" height="84.341"/>
</g>
<path style="fill:#FFE788;" d="M315.204,106.44c-70.439,0-127.747,57.307-127.747,127.747s57.307,127.746,127.747,127.746
	s127.747-57.306,127.747-127.746S385.643,106.44,315.204,106.44z"/>
<path style="fill:#FFDB2D;" d="M315.204,361.933c70.439,0,127.747-57.306,127.747-127.746S385.643,106.44,315.204,106.44"/>
<path style="fill:#FF318F;" d="M268.582,252.929c2.35,23.678,22.325,42.171,46.622,42.171c24.297,0,44.272-18.493,46.622-42.171
	H268.582z"/>
<g>
	<circle style="fill:#804D00;" cx="270.563" cy="210.753" r="17.761"/>
	<circle style="fill:#804D00;" cx="359.843" cy="210.753" r="17.761"/>
</g>
<path style="fill:#B7E4F8;" d="M326.035,344.256c0.129-1.751,0.194-3.505,0.194-5.259c0-39.389-32.045-71.433-71.433-71.433
	c-3.407,0-6.795,0.24-10.144,0.718c-15.05-33.732-48.422-55.727-86.12-55.727c-52.026,0-94.355,42.327-94.355,94.354
	c0,2.706,0.116,5.409,0.346,8.1C27.445,322.424,0,354.912,0,394.006c0,44.443,36.157,80.602,80.601,80.602h224.618
	c36.862,0,66.85-29.988,66.85-66.85C372.07,378.607,352.959,353.127,326.035,344.256z"/>
<path style="fill:#93D6F4;" d="M326.035,344.256c0.129-1.751,0.194-3.505,0.194-5.259c0-39.389-32.045-71.433-71.433-71.433
	c-3.407,0-6.795,0.24-10.144,0.718c-10.75-24.095-30.851-42.194-55.197-50.573v256.899h115.767c36.862,0,66.85-29.988,66.85-66.85
	C372.07,378.607,352.959,353.127,326.035,344.256z"/>
</svg>